<svg xmlns="http://www.w3.org/2000/svg" data-name="Layer 1" width="500" height="741.61701" viewBox="0 0 500 741.61701" xmlns:xlink="http://www.w3.org/1999/xlink"><title>mobile_app</title><path d="M676,252.13875h-3.99878V142.59342A63.40185,63.40185,0,0,0,608.59917,79.1915H376.51273a63.40185,63.40185,0,0,0-63.402,63.40192V743.5676a63.40185,63.40185,0,0,0,63.402,63.40193H608.59917a63.40185,63.40185,0,0,0,63.40205-63.40193V330.115H676Z" transform="translate(-248 -79.1915)" fill="#636363"/><path d="M611.15749,95.68648h-30.295A22.49484,22.49484,0,0,1,560.03536,126.677H427.0759a22.49484,22.49484,0,0,1-20.82714-30.99056H377.95319a47.3478,47.3478,0,0,0-47.34787,47.34774V743.12674a47.34781,47.34781,0,0,0,47.34787,47.34781h233.2043a47.34781,47.34781,0,0,0,47.34786-47.34781V143.03422A47.3478,47.3478,0,0,0,611.15749,95.68648Z" transform="translate(-248 -79.1915)" fill="#fff"/><rect x="196.31772" y="177.70431" width="82.65983" height="7.67616" fill="#8273e8"/><rect x="196.31772" y="204.25859" width="144.06914" height="7.67616" fill="#e6e6e6"/><rect x="196.31772" y="230.81286" width="143.92807" height="7.67616" fill="#e6e6e6"/><rect x="117.77811" y="177.81829" width="61.40931" height="61.40931" fill="#8273e8"/><rect x="196.31772" y="338.90375" width="82.65983" height="7.67616" fill="#8273e8"/><rect x="196.31772" y="365.45803" width="144.06914" height="7.67616" fill="#e6e6e6"/><rect x="196.31772" y="392.0123" width="143.92807" height="7.67616" fill="#e6e6e6"/><rect x="117.77811" y="339.01773" width="61.40931" height="61.40931" fill="#8273e8"/><rect x="196.31772" y="500.10319" width="82.65983" height="7.67616" fill="#8273e8"/><rect x="196.31772" y="526.65747" width="144.06914" height="7.67616" fill="#e6e6e6"/><rect x="196.31772" y="553.21174" width="143.92807" height="7.67616" fill="#e6e6e6"/><rect x="117.77811" y="500.21717" width="61.40931" height="61.40931" fill="#8273e8"/></svg>